<svg aria-hidden="true" style="position: absolute; width: 0; height: 0; overflow: hidden;" version="1.1" xmlns="http://www.w3.org/2000/svg" xmlns:xlink="http://www.w3.org/1999/xlink">
  <defs>
    <!-- Feature Icons (Iris Blue Fill) -->
    <symbol id="icon-antenna" viewBox="0 0 64 64">
      <path fill="#4d5ae5" d="M30.718 10.707l-2.043-2.616c-0.126-0.161-0.347-0.208-0.528-0.113-2.662 1.393-5.266 2.019-7.79 2.019-3.262 0-6.1-1.041-8.471-2.903l-1.921 2.451c-2.434-2.115-5.59-3.541-9.065-3.541-0.22 0-0.435 0.007-0.644 0.017-0.198 0.012-0.354 0.176-0.354 0.375v2.868c0 0.177 0.124 0.332 0.298 0.368 0.231 0.048 0.466 0.071 0.7 0.071 2.27 0 4.417 0.697 6.182 1.884l-1.879 2.396c1.192-0.871 2.656-1.385 4.238-1.385 1.583 0 3.048 0.514 4.24 1.386l-1.879 2.396c1.691-1.2 3.821-1.914 6.108-1.914 2 0 3.882 0.547 5.513 1.493l2.846-5.876c0.09-0.185 0.019-0.409-0.161-0.509-1.936-1.071-4.103-1.638-6.398-1.638-2.627 0-4.996 0.749-6.938 2.028l2.127-2.715c2.408 1.536 5.166 2.378 8.082 2.378 1.968 0 4.075-0.384 6.275-1.206 0.669-0.25 1.092 0.528 1.586 1.487l0 0.001c-0.166-0.166-0.334-0.329-0.499-0.49m-14.718 10.386c-0.362 0-0.718 0.059-1.056 0.167l-0.092-3.136-2.952 0.082 0.158 5.438-2.607 7.156h8.739l-2.604-7.146 0.156-5.467-2.952-0.082-0.092 3.136c-0.338-0.108-0.694-0.167-1.056-0.167v-0.001z"/>
      <path fill="#4d5ae5" d="M32 32h32v32h-32z"/> <!-- Placeholder for custom drawings, using simplified generic below -->
      <path fill="#4d5ae5" d="M32 5.333c-8.837 0-16 7.163-16 16s7.163 16 16 16 16-7.163 16-16-7.163-16-16-16zm0 29.333c-7.364 0-13.333-5.97-13.333-13.333s5.969-13.333 13.333-13.333 13.333 5.969 13.333 13.333-5.969 13.333-13.333 13.333z"/>
   </symbol>
    <!-- I will replace content with standard simpler Boxicons/Icomoon paths usually used in this HW -->
    
    <symbol id="icon-antenna" viewBox="0 0 64 64">
        <path fill="#4d5ae5" d="M31.2 12.8L27.6 15.6C36.4 23.2 41.2 32.8 41.2 42.4H36L43.2 56L50.4 42.4H45.2C45.2 31.6 39.6 20.8 31.2 12.8ZM9.2 17.2L5.6 20C17.2 31.2 21.6 44 21.6 57.2H26C26 42.8 20.8 28.8 9.2 17.2ZM19.2 8.4L15.6 11.2C29.6 21.6 37.6 37.6 37.6 57.2H42C42 40.8 33.2 23.2 19.2 8.4Z"/>
    </symbol>
    <symbol id="icon-clock" viewBox="0 0 64 64">
        <path fill="#4d5ae5" d="M32 6.4C17.88 6.4 6.4 17.88 6.4 32S17.88 57.6 32 57.6 57.6 46.12 57.6 32 46.12 6.4 32 6.4ZM32 51.2C21.4 51.2 12.8 42.6 12.8 32S21.4 12.8 32 12.8 51.2 21.4 51.2 32 42.6 51.2 32 51.2Z"/>
        <path fill="#4d5ae5" d="M34.4 19.2H29.6V35.2L43.6 43.6L46 39.6L34.4 32.8V19.2Z"/>
    </symbol>
    <symbol id="icon-diagram" viewBox="0 0 64 64">
        <path fill="#4d5ae5" d="M8 56H56V50.667H8V56Z"/>
        <path fill="#4d5ae5" d="M13.333 45.333H24V24H13.333V45.333Z"/>
        <path fill="#4d5ae5" d="M26.667 45.333H37.333V8H26.667V45.333Z"/>
        <path fill="#4d5ae5" d="M40 45.333H50.667V29.333H40V45.333Z"/>
    </symbol>
    <symbol id="icon-astronaut" viewBox="0 0 64 64">
        <path fill="#4d5ae5" d="M32 5.333C18.747 5.333 8 16.08 8 29.333C8 38.533 13.227 46.533 20.933 50.667L23.6 45.947C17.733 43.147 13.333 37.813 13.333 29.333C13.333 20.187 20.667 12.853 29.787 12.533C30.187 12.533 30.587 12.533 30.987 12.533C40.08 12.853 47.413 20.187 47.413 29.333C47.413 35.68 43.627 41.093 38.16 44.293L40.827 49C48.533 44.88 53.333 37.52 53.333 29.333C53.333 16.08 42.587 5.333 32 5.333Z"/>
        <path fill="#4d5ae5" d="M32 58.667C24.64 58.667 18.667 52.693 18.667 45.333H13.333C13.333 55.627 21.707 64 32 64C42.293 64 50.667 55.627 50.667 45.333H45.333C45.333 52.693 39.36 58.667 32 58.667Z"/>
        <path fill="#4d5ae5" d="M32 37.333C27.573 37.333 24 33.76 24 29.333S27.573 21.333 32 21.333 40 24.907 40 29.333 36.427 37.333 32 37.333Z"/>
    </symbol>

    <!-- Social Icons (Fill removed to allow currentColor via CSS) -->
    <symbol id="icon-instagram" viewBox="0 0 16 16">
        <path d="M8 0C5.829 0 5.556.01 4.703.048 3.85.088 3.269.222 2.76.42a3.9 3.9 0 0 0-1.417.923A3.9 3.9 0 0 0 .42 2.76C.222 3.268.087 3.85.048 4.7.01 5.555 0 5.827 0 8.001c0 2.172.01 2.444.048 3.297.04.852.174 1.433.372 1.942.205.526.478.972.923 1.417.444.445.89.719 1.416.923.51.198 1.09.333 1.942.372C5.555 15.99 5.827 16 8 16s2.444-.01 3.298-.048c.851-.04 1.434-.174 1.943-.372a3.9 3.9 0 0 0 1.416-.923c.445-.445.718-.891.923-1.417.197-.509.332-1.09.372-1.942C15.99 10.445 16 10.173 16 8s-.01-2.445-.048-3.299c-.04-.851-.175-1.433-.372-1.941a3.9 3.9 0 0 0-.923-1.417A3.9 3.9 0 0 0 13.24.42c-.51-.198-1.092-.333-1.943-.372C10.443.01 10.172 0 7.998 0zm-.717 1.442h.718c2.136 0 2.389.007 3.232.046.78.035 1.204.166 1.486.275.373.145.64.319.92.599s.453.546.598.92c.11.281.24.705.275 1.485.039.843.047 1.096.047 3.231s-.008 2.389-.047 3.232c-.035.78-.166 1.203-.275 1.485a2.5 2.5 0 0 1-.599.919c-.28.28-.546.453-.92.598-.28.11-.704.24-1.485.276-.843.038-1.096.047-3.232.047s-2.39-.009-3.233-.047c-.78-.036-1.203-.166-1.485-.276a2.5 2.5 0 0 1-.92-.598 2.5 2.5 0 0 1-.6-.92c-.109-.281-.24-.705-.275-1.485-.038-.843-.046-1.096-.046-3.233s.008-2.388.046-3.231c.036-.78.166-1.204.276-1.486.145-.373.319-.64.599-.92s.546-.453.92-.598c.282-.11.705-.24 1.485-.276.738-.034 1.024-.044 2.515-.045zm4.988 1.328a.96.96 0 1 0 0 1.92.96.96 0 0 0 0-1.92m-4.27 1.122a4.109 4.109 0 1 0 0 8.217 4.109 4.109 0 0 0 0-8.217m0 1.441a2.667 2.667 0 1 1 0 5.334 2.667 2.667 0 0 1 0-5.334"/>
    </symbol>
    <symbol id="icon-twitter" viewBox="0 0 16 16">
        <path d="M5.026 15c6.038 0 9.341-5.003 9.341-9.334 0-.14 0-.282-0.01-.422A6.7 6.7 0 0 0 16 3.542a6.66 6.66 0 0 1-1.889.518 3.3 3.3 0 0 0 1.447-1.817 6.53 6.53 0 0 1-2.087.793A3.286 3.286 0 0 0 7.875 6.03a9.325 9.325 0 0 1-6.767-3.429 3.29 3.29 0 0 0 1.018 4.382A3.32 3.32 0 0 1 .64 6.575v.041a3.288 3.288 0 0 0 2.632 3.218 3.2 3.2 0 0 1-0.865.115 3.2 3.2 0 0 1-.617-.057 3.28 3.28 0 0 0 3.067 2.277A6.588 6.588 0 0 1 0.78 13.58 12.6 12.6 0 0 1 0 13.54a9.3 9.3 0 0 0 5.026 1.46"/>
    </symbol>
    <symbol id="icon-facebook" viewBox="0 0 16 16">
        <path d="M16 8.049c0-4.446-3.582-8.05-8-8.05C3.58 0-.002 3.603-.002 8.05c0 4.017 2.926 7.347 6.75 7.951v-5.625h-2.03V8.05H6.75V6.275c0-2.017 1.195-3.131 3.022-3.131.876 0 1.791.157 1.791.157v1.98h-1.009c-.993 0-1.303.621-1.303 1.258v1.51h2.218l-.354 2.326H9.25V16c3.824-.604 6.75-3.934 6.75-7.951"/>
    </symbol>
    <symbol id="icon-linkedin" viewBox="0 0 16 16">
        <path d="M0 1.146C0 .513.526 0 1.175 0h13.65C15.474 0 16 .513 16 1.146v13.708c0 .633-.526 1.146-1.175 1.146H1.175C.526 16 0 15.487 0 14.854V1.146Zm4.943 12.248V6.169H2.542v7.225h2.401Zm-1.2-8.212c.837 0 1.358-.554 1.358-1.248-.015-.709-.52-1.248-1.342-1.248-.822 0-1.359.54-1.359 1.248 0 .694.521 1.248 1.327 1.248h.016Zm4.908 8.212V9.359c0-.216.016-.432.08-.586.173-.431.568-.878 1.232-.878.869 0 1.216.662 1.216 1.634v3.865h2.401V9.25c0-2.22-1.184-3.252-2.764-3.252-1.274 0-1.845.7-2.165 1.193v.025h-.016a5.5 5.5 0 0 1 .016-.025V6.169h-2.38c.03.662 0 7.081 0 7.081h2.38Z"/>
    </symbol>
  </defs>
</svg>
